<svg width="191" height="186" xmlns="http://www.w3.org/2000/svg" xmlns:xlink="http://www.w3.org/1999/xlink" xml:space="preserve" overflow="hidden"><g transform="translate(-677 -2274)"><path d="M679.5 2326.87C679.5 2299.05 702.05 2276.5 729.867 2276.5L815.133 2276.5C842.95 2276.5 865.5 2299.05 865.5 2326.87L865.5 2407.13C865.5 2434.95 842.95 2457.5 815.133 2457.5L729.867 2457.5C702.05 2457.5 679.5 2434.95 679.5 2407.13Z" stroke="#FFFFFF" stroke-width="4.58333" stroke-miterlimit="8" fill="#C00000" fill-rule="evenodd"/><path d="M781.013 2314 791.959 2314 791.959 2353.48C794.13 2349.56 797.214 2346.52 801.211 2344.35 805.207 2342.18 809.55 2341.09 814.242 2341.09 821.712 2341.09 827.707 2343.37 832.224 2347.93 836.741 2352.48 839 2359.49 839 2368.94L839 2406 828.184 2406 828.184 2370.09C828.184 2356.89 822.755 2350.29 811.896 2350.29 806.249 2350.29 801.515 2352.27 797.692 2356.23 793.87 2360.19 791.959 2365.84 791.959 2373.16L791.959 2406 781.013 2406ZM705 2314 715.946 2314 715.946 2353.48C718.117 2349.56 721.201 2346.52 725.198 2344.35 729.194 2342.18 733.537 2341.09 738.229 2341.09 745.699 2341.09 751.694 2343.37 756.211 2347.93 760.728 2352.48 762.987 2359.49 762.987 2368.94L762.987 2406 752.171 2406 752.171 2370.09C752.171 2356.89 746.742 2350.29 735.883 2350.29 730.236 2350.29 725.502 2352.27 721.679 2356.23 717.857 2360.19 715.946 2365.84 715.946 2373.16L715.946 2406 705 2406Z" fill="#FFFFFF" fill-rule="evenodd"/></g></svg>